<svg width="50" height="60" viewBox="0 0 50 60" fill="none" xmlns="http://www.w3.org/2000/svg">
<path d="M2.5 15V60H47.5V15H2.5ZM15 50C15 51.38 13.88 52.5 12.5 52.5C11.12 52.5 10 51.38 10 50V25C10 23.62 11.12 22.5 12.5 22.5C13.88 22.5 15 23.62 15 25V50ZM27.5 50C27.5 51.38 26.38 52.5 25 52.5C23.62 52.5 22.5 51.38 22.5 50V25C22.5 23.62 23.62 22.5 25 22.5C26.38 22.5 27.5 23.62 27.5 25V50ZM40 50C40 51.38 38.88 52.5 37.5 52.5C36.12 52.5 35 51.38 35 50V25C35 23.62 36.12 22.5 37.5 22.5C38.88 22.5 40 23.62 40 25V50ZM50 5V10H0V5H14.2775C16.5275 5 18.355 2.2525 18.355 0H31.6425C31.6425 2.2525 33.4675 5 35.72 5H50Z" fill="#AAAAAA" fill-opacity="0.75"/>
</svg>
