<svg width="60" height="60" viewBox="0 0 60 60" fill="none" xmlns="http://www.w3.org/2000/svg">
<path d="M26.2787 0.0679245C24.9003 0.311703 23.6719 1.10867 22.9124 2.25256C22.453 2.9417 22.5373 2.69792 20.7792 8.36109C20.4182 9.51904 19.8978 11.188 19.6258 12.0647C19.3539 12.9413 18.8382 14.5962 18.4818 15.7448L17.8348 17.8263L17.2722 17.9997C16.6299 18.2013 13.8919 19.0499 12.3072 19.5421C11.7164 19.7296 10.9006 19.9828 10.5021 20.1047C2.93966 22.4534 3.13189 22.3878 2.63022 22.6737C0.787668 23.7098 -0.234412 25.7585 0.0515826 27.8212C0.21099 28.9885 0.745472 30.0152 1.62221 30.8403C1.88007 31.0841 3.91017 32.5421 8.17196 35.5518L14.3513 39.9117L14.3232 41.1072C14.2763 43.2683 14.1966 50.6942 14.1872 53.2023C14.1825 55.7901 14.1825 55.7808 14.4029 56.484C14.5482 56.9528 14.9233 57.6372 15.2515 58.0545C16.719 59.9109 19.2836 60.5157 21.4027 59.5124C21.9513 59.2546 21.8763 59.3062 24.4033 57.4216C25.5661 56.5543 28.2572 54.5478 30.3905 52.9539L34.2631 50.0613L35.1024 50.3473C35.5618 50.5067 36.6214 50.863 37.4606 51.149C39.8799 51.9694 41.2442 52.4288 44.001 53.3664C48.4082 54.8619 48.7457 54.9744 49.1911 55.0494C51.6057 55.4667 54.0015 54.0602 54.8266 51.7443C55.1267 50.9052 55.2064 50.0191 55.0611 49.1659C55.0095 48.8659 54.7141 47.9283 54.1421 46.2406C53.2279 43.5496 52.6324 41.7869 51.9057 39.6445C51.6526 38.8897 51.1321 37.3661 50.7571 36.2644L50.0772 34.2532L52.9653 30.3809C54.5594 28.2478 56.6176 25.4912 57.5412 24.2536C58.9431 22.3784 59.2619 21.9189 59.4776 21.4876C60.3355 19.7437 60.1339 17.6903 58.9525 16.1386C58.2257 15.1822 57.213 14.5493 55.9331 14.2352C55.7315 14.1883 55.1126 14.1743 53.1435 14.179C50.6586 14.1883 43.6166 14.268 41.1645 14.3149L39.9221 14.3384L35.5618 8.16888C33.166 4.77473 31.1031 1.88689 30.9812 1.74625C29.8091 0.405464 27.9994 -0.236797 26.2787 0.0679245Z" fill="#AAAAAA" fill-opacity="0.75"/>
</svg>
