<svg width="60" height="60" viewBox="0 0 60 60" fill="none" xmlns="http://www.w3.org/2000/svg">
<path d="M26.4529 1.05264L26.4531 1.0526C27.8217 0.810226 29.2798 1.32192 30.2252 2.40087C30.2242 2.39994 30.236 2.416 30.2619 2.45132C30.314 2.52242 30.4234 2.67154 30.6006 2.91708C30.8471 3.25851 31.19 3.73708 31.6048 4.31834C32.4341 5.48055 33.5478 7.04964 34.7448 8.74555L34.7452 8.74603L39.1054 14.9155L39.4112 15.3482L39.9409 15.3382L41.1834 15.3147L41.1836 15.3147C43.6303 15.268 50.6667 15.1883 53.1469 15.179C54.1313 15.1766 54.7675 15.179 55.1805 15.1875C55.5226 15.1946 55.6596 15.2061 55.6976 15.2093C55.7102 15.2103 55.7119 15.2105 55.7066 15.2092L55.9331 14.2352M26.4529 1.05264L37.7832 50.2024C38.6587 50.4993 39.3964 50.7491 40.1123 50.9914C41.3723 51.418 42.5648 51.8217 44.3223 52.4194C48.7992 53.9386 49.016 54.0058 49.3572 54.0633L49.3614 54.064C51.2933 54.3979 53.2217 53.2693 53.8846 51.4087L53.885 51.4077C54.1286 50.7264 54.191 50.0143 54.0754 49.3348C54.0629 49.263 53.999 49.0206 53.8427 48.5235C53.6943 48.0512 53.4802 47.4031 53.195 46.5616C52.6247 44.8829 52.1782 43.5647 51.7466 42.2907C51.4865 41.5227 51.2318 40.7708 50.9587 39.9657L50.9576 39.9625C50.7635 39.3838 50.4114 38.3505 50.088 37.4016C49.9912 37.1176 49.897 36.8411 49.8104 36.5867L49.8097 36.5846L49.1299 34.5734L48.9618 34.0761L49.2756 33.6554L52.1637 29.783L52.1643 29.7823C53.7582 27.6494 55.8163 24.893 56.7398 23.6555L56.7403 23.6548C58.1631 21.7516 58.4159 21.3741 58.5817 21.0433C59.2699 19.6416 59.109 17.995 58.1568 16.7444L58.1562 16.7436C57.5842 15.9907 56.7796 15.4726 55.6948 15.2064L55.9331 14.2352M26.4529 1.05264C25.3378 1.24984 24.3503 1.89486 23.7455 2.80571L23.7444 2.80729M26.4529 1.05264L23.7444 2.80729M55.9331 14.2352C57.213 14.5493 58.2257 15.1822 58.9524 16.1386L53.1435 14.179C55.1126 14.1743 55.7315 14.1883 55.9331 14.2352ZM23.7444 2.80729C23.724 2.83799 23.7057 2.86526 23.6893 2.88983C23.6003 3.02281 23.5645 3.07621 23.5205 3.16121C23.4688 3.26101 23.3996 3.41992 23.2768 3.77137C23.0444 4.43677 22.6701 5.64264 21.8999 8.12383L21.7342 8.65759L21.7338 8.65873M23.7444 2.80729L21.7338 8.65873M21.7338 8.65873L21.6671 8.87266C21.3111 10.0146 20.8363 11.5377 20.5809 12.3609C20.4555 12.7654 20.2714 13.3569 20.0753 13.9872C19.856 14.6924 19.6215 15.4462 19.4369 16.0411L19.4368 16.0416M21.7338 8.65873L19.4368 16.0416M19.4368 16.0416L18.7898 18.1231L18.6333 18.6266M19.4368 16.0416L18.6333 18.6266M18.6333 18.6266L18.1294 18.7819M18.6333 18.6266L18.1294 18.7819M18.1294 18.7819L17.5717 18.9538C17.5709 18.9541 17.5701 18.9543 17.5693 18.9546C17.1294 19.0926 15.7289 19.5272 14.3802 19.9457C13.7418 20.1438 13.1151 20.3383 12.6072 20.496C12.0141 20.6843 11.1987 20.9373 10.797 21.0602C10.4717 21.1612 10.1608 21.2578 9.86364 21.3501C6.70282 22.3316 5.09766 22.8301 4.22829 23.1135C3.74873 23.2698 3.52244 23.3514 3.39132 23.4057C3.2949 23.4457 3.25957 23.4659 3.15721 23.5243C3.14729 23.53 3.13674 23.536 3.12545 23.5425L3.12033 23.5454M18.1294 18.7819L3.12033 23.5454M3.12033 23.5454C1.63112 24.3827 0.81334 26.034 1.04209 27.6839L1.04237 27.6859M3.12033 23.5454L1.04237 27.6859M1.04237 27.6859C1.17004 28.6208 1.59328 29.4399 2.30753 30.1121L2.30916 30.1136M1.04237 27.6859L2.30916 30.1136M2.30916 30.1136C2.30755 30.1121 2.30812 30.1126 2.31144 30.1154C2.32079 30.1232 2.35199 30.1494 2.41809 30.201C2.49793 30.2633 2.60811 30.3468 2.75176 30.4536C3.03854 30.6669 3.44461 30.9624 3.9794 31.3469C5.04821 32.1155 6.61825 33.2303 8.74881 34.735L14.9278 39.0946L15.3636 39.4021M2.30916 30.1136L15.3636 39.4021M15.3636 39.4021L15.351 39.9352M15.3636 39.4021L15.351 39.9352M15.351 39.9352L15.3229 41.1288C15.3229 41.1292 15.3229 41.1296 15.3229 41.13C15.2762 43.2846 15.1966 50.7007 15.1872 53.2054C15.1848 54.5205 15.1844 55.1185 15.2085 55.4841C15.2274 55.771 15.254 55.856 15.354 56.1749L15.3571 56.1849L15.358 56.1878M15.351 39.9352L15.358 56.1878M15.358 56.1878C15.4618 56.5225 15.7724 57.0989 16.0367 57.4352C17.2182 58.929 19.2808 59.4106 20.9748 58.6086L20.9773 58.6074M15.358 56.1878L20.9773 58.6074M20.9773 58.6074C21.0063 58.5938 21.0326 58.5817 21.0572 58.5704C21.3988 58.4127 21.4059 58.4095 23.8054 56.62C23.9997 56.4751 24.2365 56.2985 24.5063 56.0973C25.8516 55.0939 28.0153 53.4802 29.7919 52.1528L29.7921 52.1527M20.9773 58.6074L29.7921 52.1527M29.7921 52.1527L33.6647 49.2601L34.0869 48.9448M29.7921 52.1527L34.0869 48.9448M34.0869 48.9448L34.5857 49.1148M34.0869 48.9448L34.5857 49.1148M34.5857 49.1148L35.4249 49.4007L35.4301 49.4025M34.5857 49.1148L35.4301 49.4025M35.4301 49.4025C35.7011 49.4965 36.1804 49.6589 36.7026 49.8357M35.4301 49.4025L36.7026 49.8357M36.7026 49.8357C37.0604 49.9569 37.4383 50.0849 37.783 50.2024L36.7026 49.8357Z" fill="#FFC905" stroke="#FFA505" stroke-width="2"/>
</svg>
